<svg width="32" height="32" viewBox="0 0 30 32" fill="none" xmlns="http://www.w3.org/2000/svg">
<path opacity="0.72" fill-rule="evenodd" clip-rule="evenodd" d="M0.249329 3.52249L2.3472 2.61092C10.146 -0.777858 19.0051 -0.777858 26.8039 2.61092L28.9018 3.52249V17.6089C28.9018 25.5071 22.4877 31.9099 14.5756 31.9099C6.6634 31.9099 0.249329 25.5071 0.249329 17.6089V3.52249ZM4.78833 6.50152V12.666C5.27239 12.5491 5.74774 12.3946 6.20995 12.2034C7.38019 11.7196 8.44348 11.0104 9.33914 10.1163C10.2348 9.2222 10.9453 8.1608 11.43 6.99263C11.733 6.26257 11.944 5.49973 12.0597 4.72159C9.58385 4.96085 7.13418 5.55418 4.78833 6.50152ZM4.78916 17.7379C5.27293 17.8548 5.74799 18.0092 6.20995 18.2002C7.38019 18.6841 8.44348 19.3933 9.33914 20.2874C10.2348 21.1815 10.9453 22.2429 11.43 23.4111C11.9128 24.5744 12.1622 25.821 12.1642 27.0801C7.9649 26.018 4.84757 22.2461 4.78916 17.7379ZM14.4337 19.413C13.8909 18.5742 13.2595 17.793 12.5487 17.0835C11.838 16.374 11.0554 15.7437 10.2151 15.2018C11.0554 14.66 11.838 14.0297 12.5487 13.3202C13.2595 12.6107 13.8909 11.8295 14.4337 10.9907C14.9765 11.8295 15.608 12.6107 16.3187 13.3202C17.0295 14.0297 17.8121 14.66 18.6524 15.2018C17.8121 15.7437 17.0295 16.374 16.3187 17.0835C15.608 17.793 14.9765 18.5742 14.4337 19.413ZM16.7032 27.1473C21.0652 26.1821 24.3324 22.3114 24.3626 17.6737C23.7805 17.7959 23.2097 17.9719 22.6575 18.2002C21.4873 18.6841 20.424 19.3933 19.5283 20.2874C18.6326 21.1815 17.9222 22.2429 17.4374 23.4111C16.9527 24.5792 16.7032 25.8313 16.7032 27.0956V27.1473ZM22.6575 12.2034C23.2097 12.4318 23.7807 12.6078 24.3628 12.7301V6.50152C21.9262 5.51751 19.3776 4.91546 16.8039 4.69539C16.9187 5.48262 17.1311 6.25439 17.4374 6.99263C17.9222 8.1608 18.6326 9.2222 19.5283 10.1163C20.424 11.0104 21.4873 11.7196 22.6575 12.2034Z" fill="white"/>
</svg>
