<svg width="32" height="32" viewBox="0 0 30 32" fill="none" xmlns="http://www.w3.org/2000/svg">
<path opacity="0.72" fill-rule="evenodd" clip-rule="evenodd" d="M0.24939 3.52249L2.34726 2.61092C10.1461 -0.777858 19.0052 -0.777858 26.804 2.61092L28.9019 3.52249V17.6089C28.9019 25.5071 22.4878 31.9099 14.5756 31.9099C6.66346 31.9099 0.24939 25.5071 0.24939 17.6089V3.52249ZM4.7884 6.50152V12.666C5.27245 12.5491 5.7478 12.3946 6.21001 12.2034C7.38025 11.7196 8.44354 11.0104 9.3392 10.1163C10.2349 9.2222 10.9453 8.1608 11.4301 6.99263C11.733 6.26257 11.9441 5.49973 12.0598 4.72159C9.58391 4.96085 7.13424 5.55418 4.7884 6.50152ZM4.78922 17.7379C5.27299 17.8548 5.74805 18.0092 6.21001 18.2002C7.38025 18.6841 8.44354 19.3933 9.3392 20.2874C10.2349 21.1815 10.9453 22.2429 11.4301 23.4111C11.9128 24.5744 12.1622 25.821 12.1643 27.0801C7.96496 26.018 4.84763 22.2461 4.78922 17.7379ZM14.4338 19.413C13.891 18.5742 13.2595 17.793 12.5488 17.0835C11.838 16.374 11.0555 15.7437 10.2151 15.2018C11.0555 14.66 11.838 14.0297 12.5488 13.3202C13.2595 12.6107 13.891 11.8295 14.4338 10.9907C14.9766 11.8295 15.608 12.6107 16.3188 13.3202C17.0296 14.0297 17.8121 14.66 18.6524 15.2018C17.8121 15.7437 17.0296 16.374 16.3188 17.0835C15.608 17.793 14.9766 18.5742 14.4338 19.413ZM16.7033 27.1473C21.0653 26.1821 24.3325 22.3114 24.3627 17.6737C23.7806 17.7959 23.2097 17.9719 22.6576 18.2002C21.4873 18.6841 20.424 19.3933 19.5284 20.2874C18.6327 21.1815 17.9222 22.2429 17.4375 23.4111C16.9528 24.5792 16.7033 25.8313 16.7033 27.0956V27.1473ZM22.6576 12.2034C23.2098 12.4318 23.7807 12.6078 24.3629 12.7301V6.50152C21.9262 5.51751 19.3776 4.91546 16.8039 4.69539C16.9188 5.48262 17.1311 6.25439 17.4375 6.99263C17.9222 8.1608 18.6327 9.2222 19.5284 10.1163C20.424 11.0104 21.4873 11.7196 22.6576 12.2034Z" fill="black"/>
</svg>
