<svg width="42" height="34" viewBox="0 0 210 170" fill="none" xmlns="http://www.w3.org/2000/svg">
  <!-- AWS cloud outline -->
  <path d="M105 12 C82 12 65 26 62 46 C50 44 35 52 30 66 C12 66 2 80 2 96 C2 116 18 128 38 128 L172 128 C192 128 208 116 208 96 C208 80 198 66 180 66 C178 44 162 28 140 26 C133 17 120 12 105 12 Z"
    fill="none" stroke="#FF9900" stroke-width="10" stroke-linejoin="round"/>
  <!-- "aws" lowercase text -->
  <text x="105" y="96" font-family="Arial,sans-serif" font-weight="700" font-size="52" fill="#232F3E" text-anchor="middle" dominant-baseline="middle">aws</text>
  <!-- Orange smile arc -->
  <path d="M55 116 Q105 148 155 116" fill="none" stroke="#FF9900" stroke-width="8" stroke-linecap="round"/>
  <!-- Arrow tip -->
  <path d="M143 108 L155 116 L148 126" fill="none" stroke="#FF9900" stroke-width="8" stroke-linecap="round" stroke-linejoin="round"/>
</svg>
