<svg width="24" height="24" viewBox="0 0 110 110" fill="none" xmlns="http://www.w3.org/2000/svg">
  <!-- Python logo — official blue snake (top-left) -->
  <path d="M54.9 0.3C26.2 0.3 28 13 28 13L28 26.1H55.6V30H17.7C0.3 30 0.3 57.5 0.3 57.5C0.3 87.1 16.4 86.1 16.4 86.1H26.2V72.3C26.2 72.3 25.9 55.9 42.5 55.9H67.3C67.3 55.9 82.8 56.2 82.8 40.9V15.3C82.8 15.3 85.3 0.3 54.9 0.3ZM39.7 9.1C42.4 9.1 44.7 11.3 44.7 14.1C44.7 16.9 42.4 19.1 39.7 19.1C36.9 19.1 34.7 16.9 34.7 14.1C34.7 11.3 36.9 9.1 39.7 9.1Z" fill="#4B8BBE"/>
  <!-- Python logo — official yellow snake (bottom-right) -->
  <path d="M55.6 109.7C84.3 109.7 82.5 97 82.5 97L82.5 83.9H54.9V80H92.8C110.2 80 110.2 52.5 110.2 52.5C110.2 22.9 94.1 23.9 94.1 23.9H84.3V37.7C84.3 37.7 84.6 54.1 68 54.1H43.2C43.2 54.1 27.7 53.8 27.7 69.1V94.7C27.7 94.7 25.2 109.7 55.6 109.7ZM70.8 100.9C68.1 100.9 65.8 98.7 65.8 95.9C65.8 93.1 68.1 90.9 70.8 90.9C73.6 90.9 75.8 93.1 75.8 95.9C75.8 98.7 73.6 100.9 70.8 100.9Z" fill="#FFD43B"/>
</svg>
